<svg width="390" height="190" viewBox="0 0 390 190" fill="none" xmlns="http://www.w3.org/2000/svg">
<path fill-rule="evenodd" clip-rule="evenodd" d="M122.381 127.181H155.376C162.935 127.181 168.831 125.254 173.254 121.965C177.033 119.168 181.493 113.424 181.493 107.074V104.353C181.493 101.254 179.036 98.4567 177.109 97.0583C174.652 95.2441 169.739 94.2992 168.907 93.5811C173.065 93.4677 178.28 89.8394 180.85 87.8362C183.836 85.4173 186.293 80.6173 186.293 75.2504V74.948C186.293 66.2551 176.542 62.6646 167.395 62.6646H135.95L122.381 127.181ZM147.855 88.7811H156.283C162.822 88.7811 167.698 86.4378 167.698 80.0882V78.8787C167.698 75.4771 164.372 74.3433 160.781 74.3433L150.992 74.3811L147.855 88.7811ZM142.45 114.293V115.502H150.576C157.644 115.502 163.2 113.461 163.2 106.469V104.05C163.2 102.085 159.118 100.157 156.888 100.157H145.474C145.436 101.405 144.454 105.865 144.076 107.187C143.849 107.905 142.45 114.18 142.45 114.293Z" fill="white"/>
<path fill-rule="evenodd" clip-rule="evenodd" d="M187.389 127.181H205.417L210.822 101.972H218.003C223.786 101.972 226.28 103.294 225.524 109.757C224.995 114.217 224.353 119.131 224.353 123.893V127.181H243.553L243.439 122.683L244.12 104.05V102.274C244.12 98.4945 239.282 95.6598 235.124 95.6598H232.743V95.0551C243.024 94.2236 252.246 87.4583 252.246 76.422V73.7386C252.246 66.3307 245.631 62.6646 238.148 62.6646H200.995L187.389 127.181ZM213.392 90.2551H222.539C226.28 90.2551 228.208 89.9905 230.476 88.2897C231.95 87.1937 233.953 84.2834 233.953 81.8646V79.1811C233.953 74.8724 227.717 74.3433 223.143 74.3433H216.529L213.392 90.2551Z" fill="white"/>
<path fill-rule="evenodd" clip-rule="evenodd" d="M247.106 127.181L264.983 127.143L272.013 114.293H298.016L299.603 127.181H320.013C318.879 122.192 317.82 116.22 316.989 111.005C316.271 106.318 314.381 99.2126 314.041 94.7527C313.701 90.5197 311.924 82.9228 311.055 78.5008C310.526 75.9685 309.997 72.7181 309.619 70.3748C309.317 68.8252 308.787 62.6646 307.427 62.6646H286.715C285.695 62.6646 268.951 91.389 266.797 94.6394C264.983 97.285 263.622 100.006 261.959 102.765C260.334 105.449 258.444 108.019 256.895 110.854C253.833 116.485 250.016 121.701 247.106 127.181ZM278.929 102.123L296.428 102.236L293.594 75.0614L278.929 102.123Z" fill="white"/>
<path fill-rule="evenodd" clip-rule="evenodd" d="M269.632 0H149.065L144.567 21.0142H264.529C265.814 21.0142 266.986 12.4724 267.25 10.8472C267.666 8.31496 269.632 2.11654 269.632 0Z" fill="white"/>
<path fill-rule="evenodd" clip-rule="evenodd" d="M109.191 189.846H229.757L234.18 168.869L113.688 168.832L109.191 189.846Z" fill="white"/>
<path fill-rule="evenodd" clip-rule="evenodd" d="M138.104 52.1574L258.822 52.1952C258.86 50.3054 260.372 43.5779 260.863 41.5747C261.165 40.2519 263.887 31.4834 261.808 31.4834H142.488L138.104 52.1574Z" fill="white"/>
<path fill-rule="evenodd" clip-rule="evenodd" d="M115.729 158.362L236.296 158.324L240.567 137.65L120.151 137.688L115.729 158.362Z" fill="white"/>
<path fill-rule="evenodd" clip-rule="evenodd" d="M389.594 63.2315V62.6646H340.649L327.118 127.181H376.403L379.162 114.595H347.868V113.688C347.868 110.173 350.173 104.806 350.287 100.762H379.691V99.8551C379.691 97.663 381.846 91.6157 382.11 88.4787H353.272L355.956 75.2504H386.91L389.594 63.2315Z" fill="white"/>
<path fill-rule="evenodd" clip-rule="evenodd" d="M76.8 64.1386L63.3071 127.181L112.63 127.143L115.2 114.595L83.7921 114.557L86.3622 100.762L115.654 100.724L118.186 88.4787H89.3102L92.0693 75.2504V74.3433L97.2094 74.7213L119.093 74.6457L122.381 74.3055C122.683 73.1339 123.061 69.7323 123.477 68.863C124.157 67.5402 124.498 65.3858 124.498 63.5717H78.8787C78.1984 63.5717 77.4047 63.8362 76.8 64.1386Z" fill="white"/>
<path fill-rule="evenodd" clip-rule="evenodd" d="M76.8 64.1386C77.4047 63.7984 78.1984 63.5338 78.8788 63.5338H124.498C124.498 65.3858 124.158 67.5401 123.477 68.8252C123.061 69.7701 122.683 73.1338 122.381 74.3433L119.093 74.6834L97.1717 74.759L92.0693 74.3811V75.2882H122.986L125.405 62.6646H77.6693C76.7244 62.6646 76.8 63.1937 76.8 64.1386Z" fill="white"/>
<path fill-rule="evenodd" clip-rule="evenodd" d="M6.61417 84.548V86.6646C6.61417 94.1858 13.6819 96.9449 19.4646 99.0992C22.1102 100.082 26.4189 100.989 29.3291 101.82C34.7717 103.332 34.2803 102.803 38.4378 105.6C38.4378 109.266 38.6646 111.874 36.0567 113.991C33.9024 115.729 31.2189 116.674 27.326 116.674C23.2441 116.674 18.3307 115.087 18.3307 111.269V106.772H0.56693L0.037796 110.702V114.595C0.037796 123.931 11.7165 128.693 21.6567 128.693H24.6425C33.5244 128.693 41.537 126.539 46.8661 122.986C51.326 120 57.6756 112.97 57.6756 105.902V101.405C57.6756 94.6772 49.0583 90.6331 43.4646 89.4236C40.063 88.6677 36.6236 87.6094 33.3732 86.6268C30.1606 85.6441 25.852 85.3039 25.852 80.9575V80.6551C25.852 75.3638 30.9165 72.5669 36.3213 72.5669H37.2283C39.5339 72.5669 42.6331 74.6835 42.6331 77.0646V80.0504C42.6331 80.8819 42.4819 80.8819 42.3307 81.5622H60.0567C61.4173 81.5622 61.2661 78.1606 61.2661 76.7622V74.948C61.2661 64.8567 51.2126 61.1906 40.8189 61.1906H36.0567C21.5055 61.1906 6.61417 70.526 6.61417 84.548Z" fill="white"/>
</svg>
